<svg aria-hidden="true" xmlns="http://www.w3.org/2000/svg" xmlns:xlink="http://www.w3.org/1999/xlink"><symbol viewBox="0 0 20 20" id="burger" xmlns="http://www.w3.org/2000/svg">
<path d="M2.5 5H17.5M2.5 10H17.5M2.5 15H17.5" stroke-width="2" stroke-linecap="round" stroke-linejoin="round"/>
</symbol><symbol viewBox="0 0 16 16" id="cart" xmlns="http://www.w3.org/2000/svg">
<path d="M15.5229 2.718C15.3307 2.49296 15.09 2.31197 14.818 2.18788C14.546 2.06379 14.2493 1.99964 13.949 2H2.89914L2.87044 1.766C2.81169 1.27961 2.57204 0.831155 2.1969 0.505652C1.82177 0.180149 1.33723 0.000227862 0.83516 0H0.683437C0.502179 0 0.328344 0.0702379 0.200174 0.195262C0.0720048 0.320286 0 0.489856 0 0.666667C0 0.843478 0.0720048 1.01305 0.200174 1.13807C0.328344 1.2631 0.502179 1.33333 0.683437 1.33333H0.83516C1.00256 1.33335 1.16412 1.3933 1.28922 1.50181C1.41431 1.61032 1.49423 1.75983 1.51381 1.922L2.45422 9.722C2.55185 10.5332 2.95141 11.2812 3.57705 11.824C4.20269 12.3668 5.01086 12.6667 5.84817 12.6667H12.9853C13.1666 12.6667 13.3404 12.5964 13.4686 12.4714C13.5967 12.3464 13.6687 12.1768 13.6687 12C13.6687 11.8232 13.5967 11.6536 13.4686 11.5286C13.3404 11.4036 13.1666 11.3333 12.9853 11.3333H5.84817C5.42516 11.3322 5.01288 11.2034 4.66783 10.9647C4.32279 10.726 4.06188 10.389 3.92088 10H12.0675C12.8686 10 13.6444 9.72549 14.2591 9.22429C14.8739 8.7231 15.2885 8.02713 15.4306 7.258L15.9671 4.35533C16.0207 4.06734 16.0087 3.77138 15.9319 3.48842C15.8551 3.20547 15.7155 2.94245 15.5229 2.718ZM14.6256 4.11867L14.0884 7.02133C14.003 7.48333 13.7538 7.90133 13.3843 8.20213C13.0149 8.50294 12.5487 8.66738 12.0675 8.66667H3.70355L3.06043 3.33333H13.949C14.0494 3.33275 14.1487 3.35375 14.2398 3.39484C14.3309 3.43593 14.4117 3.4961 14.4762 3.57107C14.5408 3.64605 14.5877 3.73398 14.6135 3.82862C14.6393 3.92327 14.6434 4.0223 14.6256 4.11867Z"/>
<path d="M4.78406 16C5.53897 16 6.15094 15.403 6.15094 14.6667C6.15094 13.9303 5.53897 13.3333 4.78406 13.3333C4.02916 13.3333 3.41719 13.9303 3.41719 14.6667C3.41719 15.403 4.02916 16 4.78406 16Z"/>
<path d="M11.6184 16C12.3733 16 12.9853 15.403 12.9853 14.6667C12.9853 13.9303 12.3733 13.3333 11.6184 13.3333C10.8635 13.3333 10.2516 13.9303 10.2516 14.6667C10.2516 15.403 10.8635 16 11.6184 16Z"/>
</symbol><symbol viewBox="0 0 30 30" id="close" xmlns="http://www.w3.org/2000/svg">
<rect width="30" height="30" rx="15"/>
<path d="M21.3633 8.63672L8.63536 21.3646" stroke-width="1.5" stroke-linecap="round"/>
<path d="M21.3633 21.3643L8.63536 8.63634" stroke-width="1.5" stroke-linecap="round"/>
</symbol><symbol viewBox="0 0 21 21" id="facebook" xmlns="http://www.w3.org/2000/svg">
<g clip-path="url(#dclip0_1141_59012)">
<path d="M13.9328 3.72074H15.7587V0.540736C15.4437 0.497402 14.3603 0.399902 13.0986 0.399902C10.4661 0.399902 8.66281 2.05574 8.66281 5.09907V7.8999H5.75781V11.4549H8.66281V20.3999H12.2245V11.4557H15.012L15.4545 7.90074H12.2236V5.45157C12.2245 4.42407 12.5011 3.72074 13.9328 3.72074V3.72074Z"/>
</g>
<defs>
<clipPath id="dclip0_1141_59012">
<rect width="20" height="20" transform="translate(0.601562 0.399902)"/>
</clipPath>
</defs>
</symbol><symbol viewBox="0 0 16 16" id="heart" xmlns="http://www.w3.org/2000/svg">
<g clip-path="url(#eclip0_1141_59059)">
<path d="M11.666 1.27832C10.9153 1.29 10.181 1.49956 9.53716 1.88583C8.89337 2.27211 8.36289 2.82143 7.99932 3.47832C7.63575 2.82143 7.10528 2.27211 6.46148 1.88583C5.81768 1.49956 5.08335 1.29 4.33265 1.27832C3.13595 1.33031 2.00846 1.85382 1.19651 2.73448C0.384561 3.61513 -0.0458459 4.78134 -0.000678848 5.97832C-0.000678848 9.00965 3.18999 12.3203 5.86599 14.565C6.46347 15.0671 7.21889 15.3423 7.99932 15.3423C8.77975 15.3423 9.53518 15.0671 10.1327 14.565C12.8087 12.3203 15.9993 9.00965 15.9993 5.97832C16.0445 4.78134 15.6141 3.61513 14.8021 2.73448C13.9902 1.85382 12.8627 1.33031 11.666 1.27832ZM9.27599 13.545C8.91864 13.8459 8.46649 14.0109 7.99932 14.0109C7.53215 14.0109 7.08 13.8459 6.72265 13.545C3.29732 10.671 1.33265 7.91365 1.33265 5.97832C1.28708 5.1348 1.5769 4.30747 2.1389 3.67679C2.70089 3.0461 3.48948 2.66322 4.33265 2.61165C5.17583 2.66322 5.96441 3.0461 6.52641 3.67679C7.08841 4.30747 7.37823 5.1348 7.33265 5.97832C7.33265 6.15513 7.40289 6.3247 7.52792 6.44972C7.65294 6.57475 7.82251 6.64499 7.99932 6.64499C8.17613 6.64499 8.3457 6.57475 8.47073 6.44972C8.59575 6.3247 8.66599 6.15513 8.66599 5.97832C8.62041 5.1348 8.91023 4.30747 9.47223 3.67679C10.0342 3.0461 10.8228 2.66322 11.666 2.61165C12.5092 2.66322 13.2977 3.0461 13.8597 3.67679C14.4217 4.30747 14.7116 5.1348 14.666 5.97832C14.666 7.91365 12.7013 10.671 9.27599 13.5423V13.545Z"/>
</g>
<defs>
<clipPath id="eclip0_1141_59059">
<rect width="16" height="16"/>
</clipPath>
</defs>
</symbol><symbol viewBox="0 0 20 20" id="instagram" xmlns="http://www.w3.org/2000/svg">
<g clip-path="url(#fclip0_1141_59000)">
<path d="M19.5772 6.04475C19.5322 5.02458 19.3672 4.32323 19.1309 3.71549C18.8871 3.07039 18.512 2.49284 18.0206 2.01272C17.5405 1.52512 16.9591 1.14624 16.3215 0.906251C15.7103 0.669926 15.0126 0.504952 13.9924 0.459973C12.9646 0.411184 12.6383 0.399902 10.0316 0.399902C7.42481 0.399902 7.09852 0.411184 6.07454 0.456163C5.05437 0.501143 4.35301 0.666263 3.74542 0.902442C3.10018 1.14624 2.52263 1.52131 2.0425 2.01272C1.55491 2.49284 1.17617 3.0742 0.936036 3.71183C0.699711 4.32323 0.534737 5.02078 0.489758 6.04095C0.440969 7.06873 0.429688 7.39502 0.429688 10.0018C0.429688 12.6085 0.440969 12.9348 0.485948 13.9588C0.530928 14.979 0.696048 15.6803 0.932374 16.2881C1.17617 16.9332 1.55491 17.5107 2.0425 17.9908C2.52263 18.4784 3.10399 18.8573 3.74161 19.0973C4.35301 19.3336 5.05056 19.4986 6.07088 19.5436C7.09471 19.5887 7.42114 19.5998 10.0279 19.5998C12.6347 19.5998 12.9609 19.5887 13.9849 19.5436C15.0051 19.4986 15.7065 19.3336 16.314 19.0973C17.6044 18.5984 18.6246 17.5783 19.1234 16.2881C19.3596 15.6767 19.5247 14.979 19.5697 13.9588C19.6147 12.9348 19.626 12.6085 19.626 10.0018C19.626 7.39502 19.6222 7.06873 19.5772 6.04475ZM17.8482 13.8838C17.8069 14.8215 17.6494 15.3278 17.5181 15.6654C17.1955 16.5018 16.5316 17.1657 15.6952 17.4883C15.3576 17.6196 14.8476 17.7771 13.9136 17.8182C12.9009 17.8634 12.5972 17.8745 10.0354 17.8745C7.47359 17.8745 7.16606 17.8634 6.15703 17.8182C5.21934 17.7771 4.713 17.6196 4.37543 17.4883C3.95919 17.3345 3.5803 17.0907 3.27277 16.7718C2.95396 16.4605 2.71016 16.0854 2.55632 15.6692C2.42505 15.3316 2.26755 14.8215 2.22638 13.8876C2.18125 12.8749 2.17012 12.571 2.17012 10.0092C2.17012 7.44747 2.18125 7.13994 2.22638 6.13105C2.26755 5.19337 2.42505 4.68702 2.55632 4.34945C2.71016 3.93306 2.95396 3.55433 3.27658 3.24665C3.58778 2.92784 3.96285 2.68404 4.37924 2.53035C4.7168 2.39907 5.22696 2.24157 6.16084 2.20025C7.17354 2.15527 7.4774 2.14399 10.039 2.14399C12.6046 2.14399 12.9083 2.15527 13.9174 2.20025C14.8551 2.24157 15.3614 2.39907 15.699 2.53035C16.1152 2.68404 16.4941 2.92784 16.8016 3.24665C17.1205 3.55799 17.3642 3.93306 17.5181 4.34945C17.6494 4.68702 17.8069 5.19703 17.8482 6.13105C17.8932 7.14375 17.9044 7.44747 17.9044 10.0092C17.9044 12.571 17.8932 12.8711 17.8482 13.8838Z"/>
<path d="M10.0338 5.06982C7.31083 5.06982 5.10156 7.27895 5.10156 10.002C5.10156 12.7251 7.31083 14.9342 10.0338 14.9342C12.7569 14.9342 14.966 12.7251 14.966 10.002C14.966 7.27895 12.7569 5.06982 10.0338 5.06982ZM10.0338 13.2014C8.26727 13.2014 6.83437 11.7687 6.83437 10.002C6.83437 8.23538 8.26727 6.80263 10.0338 6.80263C11.8004 6.80263 13.2332 8.23538 13.2332 10.002C13.2332 11.7687 11.8004 13.2014 10.0338 13.2014V13.2014Z"/>
<path d="M16.3109 4.87361C16.3109 5.50948 15.7953 6.02506 15.1593 6.02506C14.5234 6.02506 14.0078 5.50948 14.0078 4.87361C14.0078 4.2376 14.5234 3.72217 15.1593 3.72217C15.7953 3.72217 16.3109 4.2376 16.3109 4.87361V4.87361Z"/>
</g>
<defs>
<clipPath id="fclip0_1141_59000">
<rect width="19.2" height="19.2" transform="translate(0.398438 0.399902)"/>
</clipPath>
</defs>
</symbol><symbol viewBox="0 0 50 50" id="leaf" xmlns="http://www.w3.org/2000/svg">
<g clip-path="url(#gclip0_1141_58866)">
<path d="M28.0792 11.6015C26.3229 10.0182 23.675 10.0162 21.9187 11.6015C19.3812 13.891 14.5833 19.6386 14.5833 24.9988C14.5833 30.0277 18.1687 34.2358 22.9167 35.2045V37.4981C22.9167 38.6481 23.85 39.5814 25 39.5814C26.15 39.5814 27.0833 38.6481 27.0833 37.4981V35.2045C31.8312 34.2358 35.4167 30.0298 35.4167 24.9988C35.4167 19.6386 30.6187 13.8931 28.0792 11.6015ZM27.0833 30.8651V22.9155C27.0833 21.7656 26.15 20.8323 25 20.8323C23.85 20.8323 22.9167 21.7656 22.9167 22.9155V30.8651C20.4979 30.0027 18.75 27.7111 18.75 24.9988C18.75 21.6031 22.2354 16.9283 24.7104 14.6951C24.7937 14.6201 24.8979 14.5826 25 14.5826C25.1042 14.5826 25.2062 14.6201 25.2896 14.693C27.7646 16.9283 31.25 21.601 31.25 24.9988C31.25 27.7111 29.5021 30.0027 27.0833 30.8651ZM50 24.9988C50 21.6114 48.5125 18.4157 45.9896 16.4075C46.2812 13.0285 45.0729 9.71618 42.6771 7.32047C40.2812 4.92475 36.9646 3.72273 33.7667 4.08105C31.5833 1.48743 28.3875 0 25 0C21.6125 0 18.4167 1.48743 16.4083 4.01022C13.025 3.71023 9.71667 4.92684 7.32083 7.32255C4.925 9.71826 3.71875 13.0306 4.08125 16.2325C1.4875 18.4157 0 21.6114 0 24.9988C0 28.3861 1.4875 31.5818 4.01042 33.59C3.71875 36.969 4.92708 40.2813 7.32292 42.677C9.71875 45.0727 13.0437 46.2894 16.2333 45.9165C18.4167 48.5101 21.6125 49.9975 25 49.9975C28.3875 49.9975 31.5833 48.5101 33.5917 45.9873C36.9687 46.2748 40.2812 45.0707 42.6792 42.6749C45.075 40.2792 46.2812 36.9669 45.9187 33.765C48.5125 31.5818 50 28.3861 50 24.9988ZM43.2333 30.5797C42.2354 31.4213 41.7271 32.6484 41.8396 33.9483C42.0229 36.0982 41.2562 38.2064 39.7312 39.7313C38.2083 41.2542 36.1083 42.0333 33.9479 41.8375C32.6437 41.7312 31.4229 42.2354 30.5792 43.2333C29.1896 44.8853 27.1542 45.8331 25 45.8331C22.8458 45.8331 20.8104 44.8853 19.4187 43.2333C18.6542 42.3271 17.5708 41.825 16.4042 41.825C16.2875 41.825 16.1687 41.8292 16.0521 41.8396C13.9104 42.025 11.7958 41.2563 10.2687 39.7313C8.74583 38.2064 7.97708 36.0982 8.1625 33.9483C8.27292 32.6484 7.76667 31.4234 6.76667 30.5797C5.11458 29.1902 4.16667 27.1549 4.16667 25.0008C4.16667 22.8468 5.11458 20.8115 6.76667 19.4199C7.76458 18.5782 8.27292 17.3512 8.16042 16.0513C7.97708 13.9014 8.74375 11.7932 10.2687 10.2682C11.7937 8.7454 13.8979 7.98293 16.0521 8.16209C17.3396 8.25375 18.5771 7.7642 19.4208 6.76633C20.8104 5.11433 22.8458 4.16646 25 4.16646C27.1542 4.16646 29.1896 5.11433 30.5812 6.76633C31.4229 7.7642 32.6583 8.26625 33.95 8.16001C36.1021 7.98502 38.2083 8.7454 39.7333 10.2682C41.2562 11.7932 42.025 13.9014 41.8396 16.0513C41.7292 17.3512 42.2354 18.5762 43.2354 19.4199C44.8875 20.8094 45.8354 22.8447 45.8354 24.9988C45.8354 27.1528 44.8854 29.1881 43.2333 30.5797Z"/>
</g>
<defs>
<clipPath id="gclip0_1141_58866">
<rect width="50" height="50"/>
</clipPath>
</defs>
</symbol><symbol viewBox="0 0 9 21" id="left" xmlns="http://www.w3.org/2000/svg">
<path d="M8 1L2 10.1176L8 19.3824" stroke-width="2" stroke-linecap="round"/>
</symbol><symbol viewBox="0 0 136 36" id="logo" xmlns="http://www.w3.org/2000/svg">
<path d="M12.0853 0.758789C9.57232 0.758789 6.55669 3.24521 4.11221 7.42052C1.50781 11.7835 0 17.1316 0 21.7995C0 28.6489 3.72384 35.5218 12.0853 35.5218C20.4468 35.5218 24.1707 28.6489 24.1707 21.7995C24.1707 17.1316 22.6629 11.76 20.0585 7.44397C17.614 3.24521 14.5984 0.758789 12.0853 0.758789ZM77.3553 10.986H85.8082V33.6218H94.8779V10.986H103.331V2.61187H77.3553V10.986ZM122.704 10.986H136V2.61187H122.704C110.481 2.61187 103.97 8.85138 103.97 18.1403C103.97 27.4292 110.504 33.6687 122.704 33.6687H136V25.2711H122.704C117.038 25.2711 113.36 23.1835 113.36 18.1403C113.36 13.0971 117.038 10.986 122.704 10.986ZM58.9189 2.63533L54.0756 21.1662L49.2323 2.63533H33.2175V33.6921H42.2873V8.4057L48.8896 33.6452H59.2844L65.8868 8.38225V33.6452H74.9565V2.63533H58.9189Z"/>
</symbol><symbol viewBox="0 0 20 20" id="mail" xmlns="http://www.w3.org/2000/svg">
<path d="M18.3346 4.99967C18.3346 4.08301 17.5846 3.33301 16.668 3.33301H3.33464C2.41797 3.33301 1.66797 4.08301 1.66797 4.99967V14.9997C1.66797 15.9163 2.41797 16.6663 3.33464 16.6663H16.668C17.5846 16.6663 18.3346 15.9163 18.3346 14.9997V4.99967ZM16.668 4.99967L10.0013 9.15801L3.33464 4.99967H16.668ZM16.668 14.9997H3.33464V6.66634L10.0013 10.833L16.668 6.66634V14.9997Z"/>
</symbol><symbol viewBox="0 0 14 14" id="next" xmlns="http://www.w3.org/2000/svg">
<path d="M4.08594 1.16797L9.91927 7.0013L4.08594 12.8346" stroke-width="1.5" stroke-linecap="round" stroke-linejoin="round"/>
</symbol><symbol viewBox="0 0 9 21" id="nextS" xmlns="http://www.w3.org/2000/svg">
<path d="M1 1L7 10.1176L1 19.3824" stroke-width="2" stroke-linecap="round"/>
</symbol><symbol viewBox="0 0 20 20" id="phone" xmlns="http://www.w3.org/2000/svg">
<path d="M16.2481 18.125H16.1419C3.86064 17.4188 2.11689 7.05625 1.87314 3.89375C1.8535 3.64786 1.88257 3.40052 1.95869 3.16588C2.0348 2.93125 2.15647 2.71394 2.31671 2.52641C2.47696 2.33888 2.67263 2.1848 2.89252 2.07302C3.11241 1.96124 3.3522 1.89395 3.59814 1.875H7.04189C7.29224 1.87476 7.53689 1.94969 7.74416 2.0901C7.95143 2.23051 8.11176 2.42992 8.20439 2.6625L9.15439 5C9.24586 5.22722 9.26856 5.4763 9.21967 5.71631C9.17078 5.95631 9.05245 6.17667 8.87939 6.35L7.54814 7.69375C7.75609 8.87547 8.32201 9.96479 9.16933 10.8143C10.0166 11.6639 11.1045 12.2327 12.2856 12.4437L13.6419 11.1C13.8178 10.9288 14.0403 10.8133 14.2814 10.7677C14.5226 10.7221 14.7719 10.7486 14.9981 10.8438L17.3544 11.7875C17.5835 11.8831 17.7789 12.0446 17.9158 12.2517C18.0527 12.4587 18.1249 12.7018 18.1231 12.95V16.25C18.1231 16.7473 17.9256 17.2242 17.574 17.5758C17.2223 17.9275 16.7454 18.125 16.2481 18.125ZM3.74814 3.125C3.58238 3.125 3.42341 3.19085 3.3062 3.30806C3.18899 3.42527 3.12314 3.58424 3.12314 3.75V3.8C3.41064 7.5 5.25439 16.25 16.2106 16.875C16.2928 16.8801 16.3751 16.8689 16.4528 16.8421C16.5306 16.8153 16.6023 16.7734 16.6639 16.7188C16.7254 16.6642 16.7756 16.598 16.8115 16.524C16.8474 16.45 16.8684 16.3696 16.8731 16.2875V12.95L14.5169 12.0062L12.7231 13.7875L12.4231 13.75C6.98564 13.0687 6.24814 7.63125 6.24814 7.575L6.21064 7.275L7.98564 5.48125L7.04814 3.125H3.74814Z"/>
</symbol><symbol viewBox="0 0 9 21" id="prevS" xmlns="http://www.w3.org/2000/svg">
<path d="M8 1L2 10.1176L8 19.3824" stroke-width="2" stroke-linecap="round"/>
</symbol><symbol viewBox="0 0 9 21" id="right" xmlns="http://www.w3.org/2000/svg">
<path d="M1 1L7 10.1176L1 19.3824" stroke-width="2" stroke-linecap="round"/>
</symbol><symbol viewBox="0 0 20 20" id="search" xmlns="http://www.w3.org/2000/svg">
<g id="piconamoon:search">
<path id="pVector" d="M17.5002 17.5002L13.881 13.881M13.881 13.881C14.5001 13.2619 14.9912 12.527 15.3262 11.7181C15.6612 10.9093 15.8337 10.0423 15.8337 9.16684C15.8337 8.29134 15.6612 7.42441 15.3262 6.61555C14.9912 5.80669 14.5001 5.07174 13.881 4.45267C13.2619 3.8336 12.527 3.34252 11.7181 3.00748C10.9093 2.67244 10.0423 2.5 9.16684 2.5C8.29134 2.5 7.42441 2.67244 6.61555 3.00748C5.80669 3.34252 5.07174 3.8336 4.45267 4.45267C3.2024 5.70295 2.5 7.39868 2.5 9.16684C2.5 10.935 3.2024 12.6307 4.45267 13.881C5.70295 15.1313 7.39868 15.8337 9.16684 15.8337C10.935 15.8337 12.6307 15.1313 13.881 13.881Z" stroke-width="1.5" stroke-linecap="round" stroke-linejoin="round"/>
</g>
</symbol><symbol viewBox="0 0 20 20" id="sell" xmlns="http://www.w3.org/2000/svg">
<g id="qFrame 26086701">
<g id="qVector">
<path d="M9.812 3.06386C9.92141 2.97871 10.0786 2.97871 10.188 3.06386L11.8189 4.33294C11.8764 4.37772 11.9495 4.40034 12.0236 4.39635L14.1257 4.28323C14.2668 4.27564 14.3939 4.36368 14.4299 4.49386L14.9666 6.43416C14.9856 6.50262 15.0307 6.56184 15.0932 6.60016L16.8636 7.68621C16.9824 7.75907 17.0309 7.90153 16.9798 8.02702L16.2173 9.89741C16.1904 9.9634 16.1904 10.0366 16.2173 10.1026L16.9798 11.973C17.0309 12.0985 16.9824 12.2409 16.8636 12.3138L15.0932 13.3998C15.0307 13.4382 14.9856 13.4974 14.9666 13.5658L14.4299 15.5061C14.3939 15.6363 14.2668 15.7244 14.1257 15.7168L12.0236 15.6037C11.9495 15.5997 11.8764 15.6223 11.8189 15.6671L10.188 16.9361C10.0786 17.0213 9.92141 17.0213 9.812 16.9361L8.18112 15.6671C8.12358 15.6223 8.05053 15.5997 7.97636 15.6037L5.87425 15.7168C5.73322 15.7244 5.60607 15.6363 5.57006 15.5061L5.03336 13.5658C5.01442 13.4974 4.96927 13.4382 4.90681 13.3998L3.1364 12.3138C3.01762 12.2409 2.96905 12.0985 3.02021 11.973L3.78268 10.1026C3.80958 10.0366 3.80958 9.9634 3.78268 9.89741L3.02021 8.02702C2.96905 7.90153 3.01762 7.75907 3.1364 7.68621L4.90681 6.60016C4.96927 6.56184 5.01442 6.50262 5.03336 6.43416L5.57006 4.49386C5.60607 4.36368 5.73322 4.27564 5.87425 4.28323L7.97636 4.39635C8.05053 4.40034 8.12358 4.37772 8.18112 4.33294L9.812 3.06386Z"/>
<path d="M12.4777 6.97356L8.27454 13.0179H7.53022L11.7294 6.97356H12.4777ZM8.16707 10.092C7.68147 10.092 7.32059 9.95223 7.08443 9.67276C6.84826 9.39329 6.73018 8.99832 6.73018 8.48785C6.73018 7.97738 6.84826 7.58241 7.08443 7.30294C7.32059 7.02346 7.68147 6.88373 8.16707 6.88373C8.64736 6.88373 9.00426 7.02346 9.23777 7.30294C9.47394 7.58241 9.59202 7.97738 9.59202 8.48785C9.59202 8.99832 9.47394 9.39329 9.23777 9.67276C9.00426 9.95223 8.64736 10.092 8.16707 10.092ZM8.16707 9.5316C8.40324 9.5316 8.57837 9.46315 8.69247 9.32627C8.80923 9.18938 8.8676 8.96267 8.8676 8.64612V8.32957C8.8676 7.73926 8.63409 7.4441 8.16707 7.4441C7.69474 7.4441 7.45858 7.73926 7.45858 8.32957V8.64612C7.45858 8.96267 7.51695 9.18938 7.63371 9.32627C7.75047 9.46315 7.92825 9.5316 8.16707 9.5316ZM11.8329 13.1163C11.35 13.1163 10.9918 12.9765 10.7582 12.6971C10.5247 12.4176 10.408 12.0226 10.408 11.5122C10.408 11.0017 10.5247 10.6067 10.7582 10.3272C10.9918 10.0478 11.35 9.90803 11.8329 9.90803C12.3185 9.90803 12.6794 10.0478 12.9156 10.3272C13.1517 10.6067 13.2698 11.0017 13.2698 11.5122C13.2698 12.0226 13.1517 12.4176 12.9156 12.6971C12.6794 12.9765 12.3185 13.1163 11.8329 13.1163ZM11.8329 12.5431C12.0717 12.5431 12.2482 12.4761 12.3623 12.342C12.4791 12.208 12.5374 11.9841 12.5374 11.6704V11.3539C12.5374 10.7636 12.3026 10.4684 11.8329 10.4684C11.3659 10.4684 11.1324 10.7636 11.1324 11.3539V11.6704C11.1324 11.9813 11.1894 12.2051 11.3035 12.342C11.4203 12.4761 11.5968 12.5431 11.8329 12.5431Z"/>
</g>
</g>
</symbol><symbol viewBox="0 0 50 50" id="sensor" xmlns="http://www.w3.org/2000/svg">
<g clip-path="url(#rclip0_1141_58874)">
<path d="M22.9167 50H10.4167C4.67292 50 0 45.3271 0 39.5833V27.0833C0 21.3396 4.67292 16.6667 10.4167 16.6667H22.9167C28.6604 16.6667 33.3333 21.3396 33.3333 27.0833V39.5833C33.3333 45.3271 28.6604 50 22.9167 50ZM10.4167 20.8333C6.97083 20.8333 4.16667 23.6375 4.16667 27.0833V39.5833C4.16667 43.0292 6.97083 45.8333 10.4167 45.8333H22.9167C26.3625 45.8333 29.1667 43.0292 29.1667 39.5833V27.0833C29.1667 23.6375 26.3625 20.8333 22.9167 20.8333H10.4167ZM50 22.9167C50 10.2812 39.7187 0 27.0833 0C25.9312 0 25 0.933333 25 2.08333C25 3.23333 25.9312 4.16667 27.0833 4.16667C37.4229 4.16667 45.8333 12.5792 45.8333 22.9167C45.8333 24.0667 46.7646 25 47.9167 25C49.0687 25 50 24.0667 50 22.9167ZM41.6667 22.9167C41.6667 14.875 35.1229 8.33333 27.0833 8.33333C25.9312 8.33333 25 9.26667 25 10.4167C25 11.5667 25.9312 12.5 27.0833 12.5C32.8271 12.5 37.5 17.1729 37.5 22.9167C37.5 24.0667 38.4312 25 39.5833 25C40.7354 25 41.6667 24.0667 41.6667 22.9167ZM10.4167 25C9.26667 25 8.33333 25.9333 8.33333 27.0833C8.33333 28.2333 9.26667 29.1667 10.4167 29.1667C11.5667 29.1667 12.5 28.2333 12.5 27.0833C12.5 25.9333 11.5667 25 10.4167 25Z"/>
</g>
<defs>
<clipPath id="rclip0_1141_58874">
<rect width="50" height="50"/>
</clipPath>
</defs>
</symbol><symbol viewBox="0 0 50 50" id="settings" xmlns="http://www.w3.org/2000/svg">
<g clip-path="url(#sclip0_1141_58857)">
<path d="M25.0013 16.667C23.3531 16.667 21.742 17.1557 20.3716 18.0714C19.0011 18.9871 17.933 20.2886 17.3023 21.8113C16.6716 23.334 16.5066 25.0096 16.8281 26.6261C17.1496 28.2426 17.9433 29.7274 19.1087 30.8929C20.2742 32.0583 21.759 32.852 23.3756 33.1735C24.9921 33.4951 26.6676 33.3301 28.1903 32.6993C29.7131 32.0686 31.0145 31.0005 31.9302 29.6301C32.8459 28.2597 33.3346 26.6485 33.3346 25.0003C33.3346 22.7902 32.4567 20.6706 30.8939 19.1078C29.3311 17.545 27.2114 16.667 25.0013 16.667ZM25.0013 29.167C24.1772 29.167 23.3716 28.9226 22.6864 28.4648C22.0012 28.0069 21.4672 27.3562 21.1518 26.5948C20.8364 25.8335 20.7539 24.9957 20.9147 24.1874C21.0755 23.3792 21.4723 22.6368 22.055 22.054C22.6377 21.4713 23.3802 21.0745 24.1884 20.9137C24.9967 20.7529 25.8345 20.8355 26.5958 21.1508C27.3572 21.4662 28.0079 22.0002 28.4658 22.6855C28.9236 23.3707 29.168 24.1762 29.168 25.0003C29.168 26.1054 28.729 27.1652 27.9476 27.9466C27.1662 28.728 26.1064 29.167 25.0013 29.167Z"/>
<path d="M44.3634 28.9583L43.4384 28.425C43.8548 26.1593 43.8548 23.8366 43.4384 21.5708L44.3634 21.0375C45.0747 20.6271 45.6982 20.0806 46.1984 19.4293C46.6985 18.7779 47.0655 18.0345 47.2783 17.2413C47.4911 16.4481 47.5455 15.6208 47.4386 14.8066C47.3317 13.9924 47.0654 13.2072 46.6551 12.4958C46.2447 11.7845 45.6982 11.161 45.0468 10.6608C44.3955 10.1607 43.652 9.79376 42.8588 9.58096C42.0657 9.36816 41.2384 9.31367 40.4241 9.4206C39.6099 9.52753 38.8247 9.79378 38.1134 10.2042L37.1863 10.7396C35.4353 9.24358 33.4231 8.08385 31.2509 7.31875V6.25C31.2509 4.5924 30.5924 3.00268 29.4203 1.83058C28.2482 0.65848 26.6585 0 25.0009 0C23.3433 0 21.7536 0.65848 20.5815 1.83058C19.4094 3.00268 18.7509 4.5924 18.7509 6.25V7.31875C16.5788 8.0866 14.5672 9.24917 12.8175 10.7479L11.8863 10.2083C10.4497 9.37953 8.74272 9.15536 7.14085 9.58513C5.53897 10.0149 4.17343 11.0634 3.34463 12.5C2.51583 13.9366 2.29166 15.6436 2.72143 17.2455C3.1512 18.8473 4.19971 20.2129 5.6363 21.0417L6.5613 21.575C6.14486 23.8407 6.14486 26.1634 6.5613 28.4292L5.6363 28.9625C4.19971 29.7913 3.1512 31.1568 2.72143 32.7587C2.29166 34.3606 2.51583 36.0676 3.34463 37.5042C4.17343 38.9408 5.53897 39.9893 7.14085 40.419C8.74272 40.8488 10.4497 40.6246 11.8863 39.7958L12.8134 39.2604C14.565 40.7566 16.5779 41.9164 18.7509 42.6812V43.75C18.7509 45.4076 19.4094 46.9973 20.5815 48.1694C21.7536 49.3415 23.3433 50 25.0009 50C26.6585 50 28.2482 49.3415 29.4203 48.1694C30.5924 46.9973 31.2509 45.4076 31.2509 43.75V42.6812C33.423 41.9134 35.4345 40.7508 37.1842 39.2521L38.1155 39.7896C39.5521 40.6184 41.259 40.8426 42.8609 40.4128C44.4628 39.983 45.8283 38.9345 46.6571 37.4979C47.4859 36.0613 47.7101 34.3543 47.2803 32.7525C46.8506 31.1506 45.8021 29.7851 44.3655 28.9562L44.3634 28.9583ZM39.0551 21.0917C39.7606 23.648 39.7606 26.3478 39.0551 28.9042C38.9319 29.3491 38.96 29.8224 39.1349 30.2496C39.3099 30.6768 39.6218 31.0339 40.0217 31.2646L42.2801 32.5687C42.7588 32.845 43.1082 33.3002 43.2514 33.8341C43.3946 34.3679 43.3199 34.9369 43.0436 35.4156C42.7673 35.8944 42.3122 36.2438 41.7783 36.387C41.2444 36.5302 40.6755 36.4554 40.1967 36.1792L37.9342 34.8708C37.534 34.639 37.068 34.547 36.6097 34.6092C36.1514 34.6715 35.7269 34.8844 35.403 35.2146C33.5486 37.1076 31.2125 38.4583 28.6467 39.1208C28.1989 39.236 27.8021 39.4968 27.5188 39.8623C27.2355 40.2278 27.0819 40.6772 27.0821 41.1396V43.75C27.0821 44.3025 26.8626 44.8324 26.4719 45.2231C26.0812 45.6138 25.5513 45.8333 24.9988 45.8333C24.4463 45.8333 23.9164 45.6138 23.5257 45.2231C23.135 44.8324 22.9155 44.3025 22.9155 43.75V41.1417C22.9157 40.6793 22.7621 40.2299 22.4788 39.8644C22.1955 39.4989 21.7987 39.2381 21.3509 39.1229C18.7849 38.4577 16.4495 37.1041 14.5967 35.2083C14.2728 34.8782 13.8483 34.6652 13.39 34.603C12.9317 34.5407 12.4657 34.6328 12.0655 34.8646L9.80713 36.1708C9.57011 36.3098 9.30794 36.4005 9.03573 36.4377C8.76351 36.4749 8.48662 36.4579 8.22099 36.3877C7.95537 36.3175 7.70626 36.1954 7.48801 36.0285C7.26976 35.8616 7.08667 35.6532 6.94929 35.4153C6.81191 35.1773 6.72296 34.9146 6.68754 34.6421C6.65213 34.3696 6.67096 34.0929 6.74295 33.8277C6.81493 33.5626 6.93866 33.3143 7.10699 33.0971C7.27533 32.88 7.48495 32.6983 7.7238 32.5625L9.98213 31.2583C10.382 31.0276 10.694 30.6706 10.8689 30.2434C11.0439 29.8161 11.072 29.3429 10.9488 28.8979C10.2433 26.3415 10.2433 23.6418 10.9488 21.0854C11.0698 20.6414 11.0403 20.1699 10.8651 19.7444C10.6898 19.3189 10.3786 18.9633 9.98005 18.7333L7.72172 17.4292C7.24295 17.1529 6.89353 16.6978 6.75034 16.1639C6.60715 15.63 6.68191 15.0611 6.95817 14.5823C7.23444 14.1035 7.68958 13.7541 8.22348 13.6109C8.75737 13.4677 9.32628 13.5425 9.80505 13.8187L12.0675 15.1271C12.4667 15.3594 12.9317 15.4525 13.3895 15.3918C13.8473 15.3311 14.2719 15.12 14.5967 14.7917C16.4511 12.8986 18.7872 11.548 21.353 10.8854C21.8022 10.7699 22.2 10.5078 22.4835 10.1406C22.7669 9.77344 22.9196 9.32217 22.9175 8.85833V6.25C22.9175 5.69747 23.137 5.16756 23.5277 4.77686C23.9184 4.38616 24.4483 4.16667 25.0009 4.16667C25.5534 4.16667 26.0833 4.38616 26.474 4.77686C26.8647 5.16756 27.0842 5.69747 27.0842 6.25V8.85833C27.084 9.32074 27.2376 9.77009 27.5209 10.1356C27.8041 10.5011 28.201 10.7619 28.6488 10.8771C31.2155 11.542 33.5517 12.8956 35.405 14.7917C35.729 15.1218 36.1535 15.3348 36.6118 15.397C37.0701 15.4593 37.5361 15.3672 37.9363 15.1354L40.1946 13.8292C40.4317 13.6902 40.6938 13.5995 40.966 13.5623C41.2383 13.5251 41.5151 13.5421 41.7808 13.6123C42.0464 13.6825 42.2955 13.8046 42.5138 13.9715C42.732 14.1384 42.9151 14.3468 43.0525 14.5847C43.1899 14.8227 43.2788 15.0854 43.3142 15.3579C43.3496 15.6304 43.3308 15.9071 43.2588 16.1723C43.1868 16.4374 43.0631 16.6857 42.8948 16.9029C42.7264 17.12 42.5168 17.3017 42.278 17.4375L40.0196 18.7417C39.6218 18.9723 39.3115 19.3281 39.137 19.7535C38.9625 20.179 38.9337 20.6502 39.0551 21.0937V21.0917Z"/>
</g>
<defs>
<clipPath id="sclip0_1141_58857">
<rect width="50" height="50"/>
</clipPath>
</defs>
</symbol><symbol viewBox="0 0 50 50" id="shield" xmlns="http://www.w3.org/2000/svg">
<g clip-path="url(#tclip0_1141_58882)">
<path d="M38.7117 4.45786L25.6596 0.105775C25.2323 -0.0365605 24.7703 -0.0365605 24.343 0.105775L11.2909 4.45786C9.21569 5.14719 7.4105 6.47298 6.13181 8.24684C4.85312 10.0207 4.16597 12.1524 4.16797 14.3391V24.9995C4.16797 40.7558 23.3346 49.4579 24.1555 49.8204C24.4218 49.9387 24.7099 49.9998 25.0013 49.9998C25.2927 49.9998 25.5808 49.9387 25.8471 49.8204C26.668 49.4579 45.8346 40.7558 45.8346 24.9995V14.3391C45.8367 12.1524 45.1495 10.0207 43.8708 8.24684C42.5921 6.47298 40.7869 5.14719 38.7117 4.45786ZM41.668 24.9995C41.668 36.3641 28.5034 43.8183 25.0013 45.6016C21.4951 43.8245 8.33464 36.3933 8.33464 24.9995V14.3391C8.33476 13.0272 8.74771 11.7486 9.51498 10.6844C10.2823 9.62024 11.3649 8.82451 12.6096 8.40994L25.0013 4.27869L37.393 8.40994C38.6377 8.82451 39.7204 9.62024 40.4876 10.6844C41.2549 11.7486 41.6679 13.0272 41.668 14.3391V24.9995Z"/>
<path d="M31.8761 17.2916L23.1511 26.0416L18.4761 21.1666C18.2885 20.9614 18.0617 20.7959 17.8092 20.6798C17.5566 20.5637 17.2833 20.4992 17.0055 20.4904C16.7276 20.4815 16.4508 20.5283 16.1913 20.628C15.9318 20.7277 15.695 20.8784 15.4946 21.0711C15.2942 21.2638 15.1345 21.4947 15.0247 21.7501C14.915 22.0055 14.8574 22.2803 14.8555 22.5583C14.8536 22.8362 14.9073 23.1118 15.0136 23.3687C15.1198 23.6256 15.2764 23.8586 15.474 24.0541L20.2782 29.0541C20.6365 29.4411 21.0695 29.7514 21.5512 29.9662C22.0328 30.1811 22.553 30.296 23.0803 30.3041H23.149C23.6658 30.3058 24.1778 30.2048 24.6552 30.007C25.1327 29.8093 25.5661 29.5186 25.9303 29.152L34.8303 20.252C35.0247 20.058 35.1789 19.8277 35.2843 19.5741C35.3897 19.3205 35.444 19.0486 35.4443 18.774C35.4446 18.4994 35.3908 18.2274 35.286 17.9736C35.1812 17.7198 35.0274 17.4891 34.8334 17.2947C34.6394 17.1003 34.4091 16.946 34.1555 16.8407C33.9019 16.7353 33.63 16.681 33.3554 16.6807C33.0808 16.6804 32.8088 16.7342 32.555 16.839C32.3012 16.9438 32.0705 17.0976 31.8761 17.2916Z"/>
</g>
<defs>
<clipPath id="tclip0_1141_58882">
<rect width="50" height="50"/>
</clipPath>
</defs>
</symbol><symbol viewBox="0 0 18 18" id="sr" xmlns="http://www.w3.org/2000/svg">
<path d="M1 17H17M15.5882 2V13.5758C15.5882 14.128 15.1405 14.5758 14.5882 14.5758H11.4118C10.8595 14.5758 10.4118 14.128 10.4118 13.5758V2C10.4118 1.44772 10.8595 1 11.4118 1H14.5882C15.1405 1 15.5882 1.44772 15.5882 2ZM3.41177 14.5758H6.58824C7.14052 14.5758 7.58824 14.128 7.58824 13.5758V5.87879C7.58824 5.3265 7.14052 4.87879 6.58823 4.87879H3.41176C2.85948 4.87879 2.41176 5.3265 2.41176 5.87879V13.5758C2.41176 14.128 2.85948 14.5758 3.41177 14.5758Z" stroke-width="1.2" stroke-linecap="round"/>
</symbol><symbol viewBox="0 0 19 18" id="star" xmlns="http://www.w3.org/2000/svg">
<path d="M10.0208 0.230779L12.5891 5.68903L18.3305 6.56451C18.4791 6.58761 18.6024 6.69674 18.6487 6.84619C18.695 6.99563 18.6563 7.15959 18.5489 7.2694L14.3952 11.5171L15.3759 17.5162C15.4017 17.6709 15.3411 17.8275 15.2196 17.9199C15.0982 18.0124 14.9371 18.0246 14.8041 17.9515L9.66856 15.1197L4.53299 17.9523C4.40014 18.0257 4.23891 18.0137 4.1174 17.9212C3.9959 17.8288 3.93531 17.6722 3.96124 17.5174L4.94194 11.5171L0.787071 7.2694C0.679612 7.15959 0.64093 6.99563 0.687227 6.84619C0.733524 6.69674 0.856808 6.58761 1.00544 6.56451L6.7468 5.68903L9.31635 0.230779C9.38174 0.0896425 9.51855 0 9.66856 0C9.81857 0 9.95537 0.0896425 10.0208 0.230779Z"/>
</symbol><symbol viewBox="0 0 24 24" id="telegram" xmlns="http://www.w3.org/2000/svg"><path d="m20.665 3.717l-17.73 6.837c-1.21.486-1.203 1.161-.222 1.462l4.552 1.42l10.532-6.645c.498-.303.953-.14.579.192l-8.533 7.701h-.002l.002.001l-.314 4.692c.46 0 .663-.211.921-.46l2.211-2.15l4.599 3.397c.848.467 1.457.227 1.668-.785l3.019-14.228c.309-1.239-.473-1.8-1.282-1.434"/></symbol><symbol viewBox="0 0 15 15" id="viber" xmlns="http://www.w3.org/2000/svg">
<path d="M7.31997 0C6.13363 0 3.19899 0.119522 1.638 1.55378C0.514098 2.56972 0.0770235 4.12351 0.0145843 5.9761C-0.110294 8.90438 0.576537 10.757 1.70044 11.7131C1.9502 11.8924 2.57459 12.3705 3.76094 12.7291V14.2231C3.76094 14.2231 3.76094 14.8207 4.13557 14.9402C4.19801 14.9402 4.26045 15 4.32289 15C4.69753 15 5.00972 14.5817 5.4468 14.1633C5.82143 13.745 6.13363 13.4462 6.32095 13.1474H7.69461C8.88096 13.1474 11.8156 13.0279 13.3766 11.5936C14.5005 10.5179 14.9376 8.96414 14.9376 6.99203C15 6.69323 15 6.33466 15 5.9761C14.9376 3.76494 14.2507 2.27092 13.3141 1.43426C12.9395 1.13546 11.3161 0 7.81949 0H7.31997V0ZM7.1951 1.13546H7.75705C11.0663 1.13546 12.3151 2.15139 12.44 2.27092C13.1893 2.86853 13.6263 4.18327 13.6888 5.91633V6.15538C13.7512 6.51394 13.7512 6.81275 13.7512 6.99203C13.6888 8.78486 13.3141 9.98008 12.5649 10.757C11.2536 11.8924 8.50632 11.9522 7.75705 11.9522H6.5707L5.57168 13.0279L4.94728 13.6853L4.82241 13.8645C4.69753 13.9841 4.51021 14.2231 4.38533 14.2829V11.5936C3.13655 11.2948 2.63703 10.8765 2.51215 10.757C1.638 10.0398 1.13849 8.30677 1.26337 5.9761V5.37849C1.38825 3.94422 1.76288 2.98805 2.38728 2.33068C3.6985 1.19522 6.44582 1.13546 7.1951 1.13546V1.13546ZM7.13266 2.4502C6.82046 2.4502 6.82046 2.86853 7.13266 2.86853C9.44291 2.86853 11.441 4.36255 11.441 7.17131C11.441 7.47012 11.878 7.47012 11.878 7.17131C11.878 4.12351 9.7551 2.39044 7.13266 2.4502V2.4502ZM4.65819 3.00299C4.51672 2.98676 4.37422 3.02407 4.26108 3.10697C3.63668 3.40578 3.01167 4.00458 3.19899 4.66195C3.19899 4.66195 3.32386 5.1992 4.01069 6.33466C4.38533 6.87251 4.69753 7.3506 5.00972 7.70916C5.32192 8.12749 5.82143 8.60558 6.32095 8.96414C7.31997 9.74104 8.88095 10.5179 9.56779 10.6972C10.1922 10.8765 10.879 10.2789 11.1912 9.68127C11.3161 9.44223 11.2536 9.14343 11.0039 8.96414C10.6293 8.60558 10.0049 8.18725 9.56779 7.94821C9.25559 7.76892 8.88096 7.88845 8.75608 8.06773L8.44388 8.42629C8.319 8.60558 8.00681 8.60558 8.00681 8.60558C5.94631 8.06773 5.38436 6.03586 5.38436 6.03586C5.38436 6.03586 5.38436 5.79681 5.57168 5.61753L5.94631 5.31872C6.13363 5.1992 6.25851 4.84064 6.07119 4.54183C5.94631 4.36255 5.75899 4.00398 5.57168 3.8247C5.38436 3.58566 5.00972 3.16733 5.00972 3.16733C4.91499 3.07654 4.79125 3.01869 4.65819 3.00299V3.00299ZM7.56973 3.64542C7.25754 3.58566 7.1951 4.06374 7.50729 4.06374C9.25559 4.18327 10.2546 5.31872 10.1922 6.75299C10.1297 7.05179 10.6293 7.05179 10.6293 6.75299C10.6917 5.07968 9.56779 3.70518 7.56973 3.64542V3.64542ZM7.75705 4.78088C7.44485 4.72112 7.44485 5.1992 7.75705 5.1992C8.50632 5.1992 8.88096 5.61753 8.88096 6.33466C8.94339 6.63347 9.38047 6.63347 9.38047 6.33466C9.31803 5.37849 8.75608 4.78088 7.75705 4.78088Z"/>
</symbol><symbol viewBox="0 0 21 21" id="vk" xmlns="http://www.w3.org/2000/svg">
<g clip-path="url(#yclip0_1141_59006)">
<path d="M20.4233 14.8732C20.3695 14.7832 20.037 14.0606 18.4369 12.5755C16.7618 11.0204 16.9868 11.2729 19.0044 8.58397C20.2333 6.94635 20.7246 5.94627 20.5708 5.51874C20.4245 5.11121 19.5207 5.21872 19.5207 5.21872L16.5155 5.23622C16.5155 5.23622 16.293 5.20622 16.1267 5.30498C15.9655 5.40248 15.8617 5.6275 15.8617 5.6275C15.8617 5.6275 15.3854 6.89509 14.7504 7.97267C13.4115 10.2466 12.8752 10.3666 12.6565 10.2253C12.1477 9.89657 12.2752 8.90274 12.2752 8.19769C12.2752 5.99378 12.609 5.07496 11.6239 4.83744C11.2964 4.75868 11.0564 4.70618 10.22 4.69743C9.14747 4.68618 8.23865 4.70118 7.72487 4.95245C7.38234 5.11996 7.11857 5.49374 7.27983 5.51499C7.4786 5.54124 7.92863 5.63625 8.1674 5.96127C8.47617 6.38006 8.46492 7.32263 8.46492 7.32263C8.46492 7.32263 8.64243 9.91657 8.05114 10.2391C7.64486 10.4604 7.08857 10.0091 5.89473 7.94517C5.28344 6.88884 4.8209 5.72001 4.8209 5.72001C4.8209 5.72001 4.73215 5.50249 4.57338 5.38623C4.38087 5.24497 4.11085 5.19997 4.11085 5.19997L1.25314 5.21747C1.25314 5.21747 0.824358 5.22997 0.666846 5.41623C0.526836 5.5825 0.655596 5.92502 0.655596 5.92502C0.655596 5.92502 2.89326 11.1592 5.42595 13.7981C7.74987 16.217 10.3876 16.0583 10.3876 16.0583H11.5826C11.5826 16.0583 11.9439 16.0183 12.1277 15.8195C12.2977 15.637 12.2915 15.2945 12.2915 15.2945C12.2915 15.2945 12.2677 13.6906 13.0128 13.4543C13.7466 13.2218 14.6891 15.0044 15.688 15.6907C16.443 16.2095 17.0168 16.0958 17.0168 16.0958L19.6882 16.0583C19.6882 16.0583 21.0858 15.972 20.4233 14.8732Z"/>
</g>
<defs>
<clipPath id="yclip0_1141_59006">
<rect width="20" height="20" transform="translate(0.601562 0.399902)"/>
</clipPath>
</defs>
</symbol><symbol viewBox="0 0 15 15" id="whatsap" xmlns="http://www.w3.org/2000/svg">
<path d="M10.935 8.98922C10.747 8.89406 9.83156 8.44734 9.66047 8.38359C9.48937 8.32266 9.36516 8.29078 9.24047 8.47875C9.11859 8.66203 8.75953 9.08156 8.64984 9.20391C8.54016 9.32625 8.43234 9.33562 8.24719 9.25266C8.05922 9.1575 7.45875 8.96203 6.74578 8.32266C6.18891 7.82719 5.81813 7.21687 5.70797 7.02891C5.59828 6.84328 5.69578 6.73828 5.78859 6.64547C5.87391 6.56016 5.97656 6.43078 6.07172 6.31828C6.16219 6.20578 6.19125 6.13031 6.25734 6.00844C6.31828 5.87672 6.28688 5.77406 6.24047 5.68125C6.19406 5.58844 5.82047 4.66828 5.66437 4.30172C5.51531 3.93797 5.35922 3.98438 5.24437 3.98438C5.13703 3.97453 5.01234 3.97453 4.88813 3.97453C4.76391 3.97453 4.56094 4.02094 4.38984 4.19906C4.21875 4.38703 3.73547 4.83609 3.73547 5.74453C3.73547 6.65531 4.40438 7.53656 4.49719 7.66828C4.59234 7.79016 5.81297 9.66516 7.68562 10.4709C8.13234 10.6589 8.47922 10.7714 8.75016 10.8642C9.19687 11.0058 9.60469 10.9861 9.92672 10.9397C10.283 10.8811 11.0302 10.4878 11.1867 10.0486C11.3456 9.60656 11.3456 9.24047 11.2992 9.1575C11.2528 9.07219 11.1309 9.02578 10.943 8.94281L10.935 8.98922ZM7.53891 13.5938H7.52906C6.42047 13.5938 5.32453 13.2933 4.36734 12.7317L4.14281 12.5977L1.79906 13.208L2.42906 10.9275L2.27766 10.6931C1.65865 9.70892 1.33026 8.56987 1.33031 7.40719C1.33031 4.00406 4.11609 1.22812 7.54359 1.22812C9.20391 1.22812 10.7616 1.875 11.9334 3.04688C12.5115 3.61809 12.9701 4.29871 13.2824 5.04903C13.5946 5.79934 13.7543 6.60433 13.7522 7.41703C13.7475 10.8178 10.9641 13.5938 7.54125 13.5938H7.53891ZM12.8245 2.15578C11.3986 0.778594 9.52359 0 7.52906 0C3.41531 0 0.065625 3.33516 0.0632813 7.43391C0.0632813 8.74266 0.405 10.0195 1.05938 11.1497L0 15L3.96 13.9673C5.05702 14.5588 6.28323 14.8699 7.52953 14.873H7.53188C11.648 14.873 14.9977 11.5378 15 7.43625C15 5.45156 14.2261 3.58359 12.8152 2.17969L12.8245 2.15578Z"/>
</symbol></svg>